<svg width="18" height="18" viewBox="0 0 18 18" fill="none" xmlns="http://www.w3.org/2000/svg">
<path fill-rule="evenodd" clip-rule="evenodd" d="M6.4801 4.39488C5.69582 4.39488 4.91225 4.67845 4.3151 5.2463C3.74368 5.79059 3.42868 6.51273 3.42868 7.27988C3.42868 8.0463 3.74368 8.76845 4.3151 9.31273L9.14296 13.907L13.9708 9.31273C14.5422 8.76845 14.8572 8.0463 14.8572 7.27988C14.8572 6.51345 14.5422 5.79059 13.9708 5.2463C12.7772 4.11059 10.8344 4.11059 9.64082 5.2463L9.14296 5.72059L8.6451 5.2463C8.04796 4.67845 7.26439 4.39488 6.4801 4.39488ZM9.14296 15.857L3.31939 10.3149C2.46868 9.50559 2.0001 8.42773 2.0001 7.27988C2.0001 6.13202 2.46868 5.05416 3.31939 4.24416C4.9051 2.73488 7.39439 2.59916 9.14296 3.83488C10.8915 2.59916 13.3808 2.73488 14.9665 4.24416C15.8172 5.05416 16.2858 6.13202 16.2858 7.27988C16.2858 8.42773 15.8172 9.50559 14.9665 10.3149L9.14296 15.857Z" fill="#334A56"/>
</svg>
