<svg width="40" height="40" viewBox="0 0 40 40" fill="none" xmlns="http://www.w3.org/2000/svg">
<path fill-rule="evenodd" clip-rule="evenodd" d="M13.3333 16.6667C14.7133 16.6667 15.8333 15.5467 15.8333 14.1667C15.8333 12.7867 14.7133 11.6667 13.3333 11.6667C11.9533 11.6667 10.8333 12.7867 10.8333 14.1667C10.8333 15.5467 11.9533 16.6667 13.3333 16.6667M30 31.6667H10.935L22.61 21.925C23.02 21.5767 23.7633 21.5783 24.165 21.9233L31.6667 28.3233V30C31.6667 30.92 30.92 31.6667 30 31.6667M10 8.33333H30C30.92 8.33333 31.6667 9.08 31.6667 10V23.94L26.3283 19.3867C24.6783 17.9833 22.0967 17.9833 20.4617 19.3767L8.33333 29.4967V10C8.33333 9.08 9.08 8.33333 10 8.33333M30 5H10C7.24333 5 5 7.24333 5 10V30C5 32.7567 7.24333 35 10 35H30C32.7567 35 35 32.7567 35 30V10C35 7.24333 32.7567 5 30 5" fill="#334A56" fill-opacity="0.08"/>
<mask id="mask0_1239_28454" style="mask-type:alpha" maskUnits="userSpaceOnUse" x="5" y="5" width="30" height="30">
<path fill-rule="evenodd" clip-rule="evenodd" d="M13.3333 16.6667C14.7133 16.6667 15.8333 15.5467 15.8333 14.1667C15.8333 12.7867 14.7133 11.6667 13.3333 11.6667C11.9533 11.6667 10.8333 12.7867 10.8333 14.1667C10.8333 15.5467 11.9533 16.6667 13.3333 16.6667M30 31.6667H10.935L22.61 21.925C23.02 21.5767 23.7633 21.5783 24.165 21.9233L31.6667 28.3233V30C31.6667 30.92 30.92 31.6667 30 31.6667M10 8.33333H30C30.92 8.33333 31.6667 9.08 31.6667 10V23.94L26.3283 19.3867C24.6783 17.9833 22.0967 17.9833 20.4617 19.3767L8.33333 29.4967V10C8.33333 9.08 9.08 8.33333 10 8.33333M30 5H10C7.24333 5 5 7.24333 5 10V30C5 32.7567 7.24333 35 10 35H30C32.7567 35 35 32.7567 35 30V10C35 7.24333 32.7567 5 30 5" fill="white"/>
</mask>
<g mask="url(#mask0_1239_28454)">
</g>
</svg>
