<svg width="32" height="32" viewBox="0 0 32 32" fill="none" xmlns="http://www.w3.org/2000/svg">
<path fill-rule="evenodd" clip-rule="evenodd" d="M14.666 25.3333C13.93 25.3333 13.3327 24.736 13.3327 24C13.3327 23.264 13.93 22.6667 14.666 22.6667C15.402 22.6667 15.9993 23.264 15.9993 24C15.9993 24.736 15.402 25.3333 14.666 25.3333ZM27.9993 22.6667H18.4193C17.8673 21.1187 16.402 20 14.666 20C12.93 20 11.4647 21.1187 10.9127 22.6667H3.99935C3.26202 22.6667 2.66602 23.2627 2.66602 24C2.66602 24.7373 3.26202 25.3333 3.99935 25.3333H10.9127C11.4647 26.8813 12.93 28 14.666 28C16.402 28 17.8673 26.8813 18.4193 25.3333H27.9993C28.7367 25.3333 29.3327 24.7373 29.3327 24C29.3327 23.2627 28.7367 22.6667 27.9993 22.6667ZM25.3327 17.3333C24.5967 17.3333 23.9993 16.736 23.9993 16C23.9993 15.264 24.5967 14.6667 25.3327 14.6667C26.0687 14.6667 26.666 15.264 26.666 16C26.666 16.736 26.0687 17.3333 25.3327 17.3333ZM25.3327 12C23.5967 12 22.1313 13.1187 21.5793 14.6667H3.99935C3.26202 14.6667 2.66602 15.2627 2.66602 16C2.66602 16.7373 3.26202 17.3333 3.99935 17.3333H21.5793C22.1313 18.8813 23.5967 20 25.3327 20C27.538 20 29.3327 18.2053 29.3327 16C29.3327 13.7947 27.538 12 25.3327 12ZM9.33268 6.66667C10.0687 6.66667 10.666 7.264 10.666 8C10.666 8.736 10.0687 9.33333 9.33268 9.33333C8.59668 9.33333 7.99935 8.736 7.99935 8C7.99935 7.264 8.59668 6.66667 9.33268 6.66667ZM3.99935 9.33333H5.57935C6.13135 10.8813 7.59668 12 9.33268 12C11.0687 12 12.534 10.8813 13.086 9.33333H27.9993C28.7367 9.33333 29.3327 8.73733 29.3327 8C29.3327 7.26267 28.7367 6.66667 27.9993 6.66667H13.086C12.534 5.11867 11.0687 4 9.33268 4C7.59668 4 6.13135 5.11867 5.57935 6.66667H3.99935C3.26202 6.66667 2.66602 7.26267 2.66602 8C2.66602 8.73733 3.26202 9.33333 3.99935 9.33333Z" fill="#334A56"/>
<mask id="mask0_1041_20079" style="mask-type:alpha" maskUnits="userSpaceOnUse" x="2" y="4" width="28" height="24">
<path fill-rule="evenodd" clip-rule="evenodd" d="M14.666 25.3333C13.93 25.3333 13.3327 24.736 13.3327 24C13.3327 23.264 13.93 22.6667 14.666 22.6667C15.402 22.6667 15.9993 23.264 15.9993 24C15.9993 24.736 15.402 25.3333 14.666 25.3333ZM27.9993 22.6667H18.4193C17.8673 21.1187 16.402 20 14.666 20C12.93 20 11.4647 21.1187 10.9127 22.6667H3.99935C3.26202 22.6667 2.66602 23.2627 2.66602 24C2.66602 24.7373 3.26202 25.3333 3.99935 25.3333H10.9127C11.4647 26.8813 12.93 28 14.666 28C16.402 28 17.8673 26.8813 18.4193 25.3333H27.9993C28.7367 25.3333 29.3327 24.7373 29.3327 24C29.3327 23.2627 28.7367 22.6667 27.9993 22.6667ZM25.3327 17.3333C24.5967 17.3333 23.9993 16.736 23.9993 16C23.9993 15.264 24.5967 14.6667 25.3327 14.6667C26.0687 14.6667 26.666 15.264 26.666 16C26.666 16.736 26.0687 17.3333 25.3327 17.3333ZM25.3327 12C23.5967 12 22.1313 13.1187 21.5793 14.6667H3.99935C3.26202 14.6667 2.66602 15.2627 2.66602 16C2.66602 16.7373 3.26202 17.3333 3.99935 17.3333H21.5793C22.1313 18.8813 23.5967 20 25.3327 20C27.538 20 29.3327 18.2053 29.3327 16C29.3327 13.7947 27.538 12 25.3327 12ZM9.33268 6.66667C10.0687 6.66667 10.666 7.264 10.666 8C10.666 8.736 10.0687 9.33333 9.33268 9.33333C8.59668 9.33333 7.99935 8.736 7.99935 8C7.99935 7.264 8.59668 6.66667 9.33268 6.66667ZM3.99935 9.33333H5.57935C6.13135 10.8813 7.59668 12 9.33268 12C11.0687 12 12.534 10.8813 13.086 9.33333H27.9993C28.7367 9.33333 29.3327 8.73733 29.3327 8C29.3327 7.26267 28.7367 6.66667 27.9993 6.66667H13.086C12.534 5.11867 11.0687 4 9.33268 4C7.59668 4 6.13135 5.11867 5.57935 6.66667H3.99935C3.26202 6.66667 2.66602 7.26267 2.66602 8C2.66602 8.73733 3.26202 9.33333 3.99935 9.33333Z" fill="white"/>
</mask>
<g mask="url(#mask0_1041_20079)">
</g>
</svg>
