<svg width="24" height="24" viewBox="0 0 24 24" fill="none" xmlns="http://www.w3.org/2000/svg">
<g clip-path="url(#clip0_476_8589)">
<path d="M16.9512 8.95203C16.8672 9.03603 16.7544 9.08403 16.6368 9.08403H5.48877C5.09517 9.08403 4.89597 8.60403 5.16957 8.31843L6.99838 6.42483C7.08238 6.33843 7.19758 6.28802 7.31758 6.28802H18.5064C18.9024 6.28802 19.1016 6.77283 18.8208 7.05843L16.9512 8.95203ZM16.9512 17.4144C16.8672 17.496 16.7544 17.544 16.6368 17.544H5.48877C5.09517 17.544 4.89597 17.076 5.16957 16.7976L6.99838 14.9496C7.08238 14.8656 7.19758 14.8176 7.31758 14.8176H18.5064C18.9024 14.8176 19.1016 15.2904 18.8208 15.5688L16.9512 17.4144ZM16.6368 10.5528C16.7544 10.5528 16.8672 10.5984 16.9512 10.6824L18.8208 12.5304C19.1016 12.8064 18.9024 13.2816 18.5064 13.2816H7.31758C7.19758 13.2816 7.08238 13.2336 6.99838 13.1496L5.16957 11.3016C4.89357 11.0232 5.09277 10.5552 5.48877 10.5552L16.6368 10.5528Z" fill="#00FFAD"/>
<path d="M12 0C18.6264 0 24 5.3736 24 12C24 18.6264 18.6264 24 12 24C5.3736 24 0 18.6264 0 12C0 5.3736 5.3736 0 12 0Z" fill="black"/>
<path fill-rule="evenodd" clip-rule="evenodd" d="M5.54886 10.8552H16.6537C16.7929 10.8552 16.9249 10.9104 17.0209 11.0088L18.7777 12.7776C19.1017 13.104 18.8713 13.6608 18.4105 13.6608H7.30566C7.16646 13.6608 7.03446 13.6056 6.93846 13.5072L5.18166 11.7384C4.85526 11.412 5.08806 10.8552 5.54886 10.8552ZM5.18166 8.51035L6.93846 6.74155C7.03686 6.64315 7.16886 6.58795 7.30566 6.58795H18.4081C18.8689 6.58795 19.1017 7.14475 18.7753 7.47115L17.0209 9.23995C16.9225 9.33835 16.7905 9.39355 16.6537 9.39355H5.54886C5.08806 9.39355 4.85526 8.83675 5.18166 8.51035ZM18.7753 16.0056L17.0185 17.7743C16.9201 17.8727 16.7881 17.9279 16.6513 17.9279H5.54886C5.08806 17.9279 4.85526 17.3712 5.18166 17.0448L6.93846 15.276C7.03686 15.1776 7.16886 15.1223 7.30566 15.1223H18.4081C18.8689 15.1223 19.1017 15.6792 18.7753 16.0056Z" fill="url(#paint0_linear_476_8589)"/>
</g>
<defs>
<linearGradient id="paint0_linear_476_8589" x1="5.82053" y1="18.4159" x2="18.1364" y2="6.10002" gradientUnits="userSpaceOnUse">
<stop stop-color="#CB4EE8"/>
<stop offset="1" stop-color="#10F4B1"/>
</linearGradient>
<clipPath id="clip0_476_8589">
<rect width="24" height="24" fill="white"/>
</clipPath>
</defs>
</svg>
