<svg width="56" height="56" viewBox="0 0 56 56" fill="none" xmlns="http://www.w3.org/2000/svg">
<mask id="mask0_1086_22464" style="mask-type:alpha" maskUnits="userSpaceOnUse" x="0" y="0" width="56" height="56">
<rect width="56" height="56" fill="url(#paint0_angular_1086_22464)"/>
</mask>
<g mask="url(#mask0_1086_22464)">
<path fill-rule="evenodd" clip-rule="evenodd" d="M28 13.5625C26.9369 13.5625 26.075 14.4244 26.075 15.4875V21.2625C26.075 22.3256 26.9369 23.1875 28 23.1875C29.0631 23.1875 29.925 22.3256 29.925 21.2625V15.4875C29.925 14.4244 29.0631 13.5625 28 13.5625ZM38.2088 17.7911C37.4571 17.0394 36.2382 17.0394 35.4865 17.7911L31.4029 21.8747C30.6512 22.6264 30.6512 23.8453 31.4029 24.5971C32.1547 25.3488 33.3735 25.3488 34.1253 24.5971L38.2088 20.5135C38.9606 19.7617 38.9606 18.5429 38.2088 17.7911ZM40.5125 26.075C41.5756 26.075 42.4375 26.9369 42.4375 28C42.4375 29.0631 41.5756 29.925 40.5125 29.925H34.7375C33.6744 29.925 32.8125 29.0631 32.8125 28C32.8125 26.9369 33.6744 26.075 34.7375 26.075H40.5125ZM38.2089 38.2088C38.9606 37.4571 38.9606 36.2382 38.2089 35.4865L34.1253 31.4029C33.3736 30.6512 32.1547 30.6512 31.4029 31.4029C30.6512 32.1547 30.6512 33.3735 31.4029 34.1253L35.4865 38.2088C36.2382 38.9606 37.4571 38.9606 38.2089 38.2088ZM26.075 34.7375C26.075 33.6744 26.9369 32.8125 28 32.8125C29.0631 32.8125 29.925 33.6744 29.925 34.7375V40.5125C29.925 41.5756 29.0631 42.4375 28 42.4375C26.9369 42.4375 26.075 41.5756 26.075 40.5125V34.7375ZM24.5971 31.403C23.8453 30.6512 22.6265 30.6512 21.8747 31.403L17.7912 35.4865C17.0394 36.2383 17.0394 37.4571 17.7912 38.2089C18.5429 38.9606 19.7618 38.9606 20.5135 38.2089L24.5971 34.1253C25.3488 33.3736 25.3488 32.1547 24.5971 31.403ZM21.2625 26.075C22.3256 26.075 23.1875 26.9369 23.1875 28C23.1875 29.0631 22.3256 29.925 21.2625 29.925H15.4875C14.4244 29.925 13.5625 29.0631 13.5625 28C13.5625 26.9369 14.4244 26.075 15.4875 26.075H21.2625ZM24.5971 24.597C25.3488 23.8453 25.3488 22.6264 24.5971 21.8747L20.5135 17.7911C19.7618 17.0394 18.5429 17.0394 17.7912 17.7911C17.0394 18.5429 17.0394 19.7617 17.7912 20.5135L21.8747 24.597C22.6265 25.3488 23.8453 25.3488 24.5971 24.597Z" fill="black"/>
</g>
<defs>
<radialGradient id="paint0_angular_1086_22464" cx="0" cy="0" r="1" gradientUnits="userSpaceOnUse" gradientTransform="translate(28 28) rotate(-66.8014) scale(26.6552)">
<stop/>
<stop offset="1" stop-opacity="0"/>
</radialGradient>
</defs>
</svg>
