<svg width="16" height="16" viewBox="0 0 16 16" fill="none" xmlns="http://www.w3.org/2000/svg">
<g clip-path="url(#clip0_476_8571)">
<path d="M15.9858 7.99719C15.9858 12.3936 12.422 15.9574 8.02555 15.9574C3.62929 15.9574 0.0653534 12.3936 0.0653534 7.99719C0.0653534 3.60085 3.62929 0.0369873 8.02555 0.0369873C12.422 0.0369873 15.9858 3.60085 15.9858 7.99719Z" fill="#1BA27A"/>
<path d="M11.7614 4.05096H4.22394V5.87067H7.08284V8.54529H8.90254V5.87067H11.7614V4.05096Z" fill="white"/>
<path d="M8.01011 8.83027C5.64514 8.83027 3.72776 8.45598 3.72776 7.99421C3.72776 7.53252 5.64506 7.15815 8.01011 7.15815C10.3751 7.15815 12.2924 7.53252 12.2924 7.99421C12.2924 8.45598 10.3751 8.83027 8.01011 8.83027ZM12.8185 8.13359C12.8185 7.53817 10.6657 7.05554 8.01011 7.05554C5.35459 7.05554 3.20168 7.53817 3.20168 8.13359C3.20168 8.65793 4.87101 9.09479 7.08307 9.19158V13.0311H8.90261V9.1931C11.1317 9.09932 12.8185 8.66064 12.8185 8.13359Z" fill="white"/>
</g>
<defs>
<clipPath id="clip0_476_8571">
<rect width="16" height="16" fill="white"/>
</clipPath>
</defs>
</svg>
